<svg height="207" viewBox="0 0 300 207" width="300" xmlns="http://www.w3.org/2000/svg" xmlns:xlink="http://www.w3.org/1999/xlink"><radialGradient id="a" cx="149.5" cy="59.5" gradientUnits="userSpaceOnUse" r="38.606025"><stop offset="0" stop-color="#fff" stop-opacity=".655431"/><stop offset=".92554" stop-color="#fff" stop-opacity="0"/></radialGradient><radialGradient id="b" cx="126.5" cy="59.5" gradientUnits="userSpaceOnUse" r="36.789271"><stop offset="0" stop-color="#fff" stop-opacity=".458552"/><stop offset=".922546" stop-color="#fff" stop-opacity="0"/></radialGradient><g fill-rule="evenodd"><path d="m252.899048 75.845398c1.896774.83728 2.500854 3.629875 1.349991 6.23748-1.150925 2.607605-3.621094 4.043114-5.517533 3.205849-1.896133-.837258-2.500503-3.63002-1.34964-6.237786 1.150574-2.607612 3.621048-4.042793 5.517182-3.205543zm-41.29567 0c-1.896454.83728-2.500671 3.629875-1.34996 6.23748 1.151215 2.607605 3.621201 4.043114 5.517654 3.205849 1.896134-.837258 2.500382-3.63002 1.349503-6.237786-1.150757-2.607612-3.621079-4.042793-5.517197-3.205543z" fill="#f2b374"/><path d="m217.688354 136.77211-1.019439 4.151108c-2.30539 9.388519-.813797 19.307709 4.150482 27.602722l6.699249-.36438 1.529282-2.694153c1.612076-2.841308 2.697265-5.950271 3.203384-9.176925.506104 3.226654 1.591584 6.335617 3.203186 9.176925l1.529633 2.694153 6.698746.36438c4.964752-8.295013 6.456497-18.214203 4.150665-27.602722l-1.019455-4.151108-14.562775-.946991z" fill="#cf4d0c"/><path d="m217.688354 136.77211-1.019439 4.151108c-.708603 2.885437-1.057785 5.821594-1.058411 8.744568 1.99144-4.782212 6.487793-8.141297 11.745987-8.612137l-9.041687-4.324539zm29.126343 0 1.018845 4.151108c.708923 2.885437 1.057892 5.821594 1.058853 8.744568-1.991928-4.782212-6.488113-8.141297-11.746155-8.612137l9.04187-4.324539z" fill="#b84004"/><path d="m228.55011 90.852356.149444 1.869881c.180924 2.261192-.277313 4.527557-1.321929 6.540985l-1.370316 2.434944 6.244003 4.899635 6.243943-4.899635-1.370301-2.434944c-1.044754-2.013428-1.502685-4.279793-1.321777-6.540985l.149292-1.869881-3.701157.935097z" fill="#fc9"/><path d="m237.62764 100.156036-.502686-.892814c-1.044754-2.013428-1.502685-4.279793-1.321777-6.540985l.054138-.678551c-3.397552.709061-5.736267 2.194832-5.736267 3.913185 0 2.002785 3.177841 3.689835 7.506592 4.199165z" fill="#f2b374"/><path d="m245.350525 66.877472c4.11998 3.229629 6.720352 7.957535 6.720352 13.225952 0 9.734779-8.873459 17.626129-19.819565 17.626129-10.945816 0-19.819137-7.89135-19.819137-17.626129 0-5.268417 2.599929-9.996323 6.720199-13.225952 2.864395-3.923676 7.662506-6.49733 13.098938-6.49733s10.234665 2.573654 13.099213 6.49733z" fill="#fc9"/><path d="m243.249695 86.608414c-.760285 4.797241-5.394516 8.487861-10.998383 8.487861-5.603912 0-10.237808-3.69062-10.99826-8.487861z" fill="#b0773d"/><path d="m243.249695 86.608414c-.051956.327453-.122391.649124-.209717.965454-2.814163 1.672027-6.610489 2.697746-10.788666 2.697746-4.178222 0-7.97438-1.025719-10.789001-2.697746-.086853-.31633-.157593-.638001-.209259-.965454z" fill="#fff"/><path d="m237.124954 99.263222 4.137192 1.700515c1.782516.732697 3.647354 1.246567 5.553802 1.530365l1.699601 2.04065c2.561569 3.073418 5.699676 5.615433 9.238083 7.48217l-.34021 1.076912c-1.487046 4.70993-5.829255 7.933151-10.767395 7.99202 0 4.003341.346786 12.486213 2.266693 16.138603-10.440308 7.309875-22.882553 7.309875-33.322861 0 1.920074-3.65239 2.266861-12.135262 2.266861-16.138603-4.938141-.058869-9.280487-3.28209-10.767715-7.99202l-.339737-1.076912c3.538101-1.866737 6.676513-4.408752 9.237472-7.48217l1.69989-2.04065c1.906616-.283798 3.771134-.797668 5.554123-1.530365l4.136872-1.700515c.183578 1.771553 1.676254 3.117561 3.456741 3.117561h1.416946 1.416931c1.78061 0 3.272995-1.346008 3.456711-3.117561z" fill="#f2661f"/><path d="m217.85672 121.085854c-2.656525-.031617-5.14064-.979577-7.100769-2.5821 2.616638-.159348 4.804169-2.048012 5.344253-4.613816l.299225-1.42128c.802048 2.276551 1.26825 4.657647 1.383454 7.06849z" fill="#cf4d0c"/><path d="m228.356033 170.637833c.993485-1.50174 1.563767-2.811554 1.893021-4.842972-2.185516-2.118759-9.809769-2.78775-12.305924-.364411.220353 1.658265.853989 3.410752 1.638688 5.134736 3.069549.645843 5.678695.783279 8.774215.072647zm7.790512 0c-.993454-1.50174-1.563415-2.811554-1.89302-4.842972 2.185348-2.118759 9.809646-2.78775 12.305786-.364411-.219742 1.658265-.853851 3.410752-1.638229 5.134736-3.06955.645843-5.679001.783279-8.774537.072647z" fill="#fc8d56"/><path d="m227.464478 170.000763-.27324 1.346741c-.408157 2.015472-.389541 4.092575.054779 6.100189h-3.315444-3.315079c.44429-2.007614.462906-4.084717.054458-6.100189l-.273269-1.346741c2.402282-.900665 4.761627-.969238 7.067795 0zm9.573455 0 .27327 1.346741c.408142 2.015472.389679 4.092575-.054443 6.100189h3.315551 3.315247c-.445053-2.007614-.463226-4.084717-.054764-6.100189l.273255-1.346741c-2.402237-.900665-4.761963-.969238-7.068116 0z" fill="#fc9"/><path d="m237.928436 175.350586-.526138-.252045c-.323044-.154968-.703003-.135238-1.008484.052933-.305496.187164-.494537.517471-.502365.875916-.018463.819885.098267 1.638214.345535 2.421478.340866 1.078796.270142 2.247406-.199997 3.277374-.368698.808319-.507675 1.703018-.400634 2.5849h12.57872l.109542-.800171c.030686-.225067-.007522-.453918-.109542-.656158l.09169-1.128571c.143676-1.786606-.932419-3.44548-2.621659-4.042786l-.873581-.235763.200028-2.00354c.160553-1.604386-.939316-3.062622-2.526215-3.348114-1.586578-.285828-3.126205.696548-3.535919 2.256195-.129898.49556-.661972 1.170532-1.020981.998352zm-11.354431 0 .526138-.252045c.323502-.154968.703156-.135238 1.008652.052933.305161.187164.494843.517471.502503.875916.018325.819885-.098587 1.638214-.345871 2.421478-.340989 1.078796-.269638 2.247406.200317 3.277374.368713.808319.507538 1.703018.40036 2.5849h-12.578888l-.109222-.800171c-.030838-.225067.007187-.453918.109222-.656158l-.091095-1.128571c-.144272-1.786606.931961-3.44548 2.621353-4.042786l.873749-.235763-.199997-2.00354c-.160415-1.604386.939591-3.062622 2.526016-3.348114 1.586747-.285828 3.126374.696548 3.535904 2.256195.130066.49556.662018 1.170532 1.020859.998352z" fill="#8f4f0e"/><path d="m246.646027 121.085854c2.657013-.031617 5.140625-.979577 7.100311-2.5821-2.616333-.159348-4.803879-2.048012-5.344086-4.613816l-.29895-1.42128c-.802795 2.276551-1.26825 4.657647-1.383728 7.06849z" fill="#cf4d0c"/><path d="m240.514725 184.311142h7.700348l.109542-.800171c.030686-.225067-.007522-.453918-.109542-.656158l.09169-1.128571c.063553-.790146-.111405-1.555572-.472611-2.214554-1.450119-.954498-3.311828-1.047775-4.856766-.229782-1.616333.857773-2.600387 2.56395-2.532791 4.392166.007843.216019.031311.428894.07013.63707zm-16.526871 0h-7.700638l-.109222-.800171c-.030838-.225067.007187-.453918.109222-.656158l-.091095-1.128571c-.063675-.790146.111283-1.555572.472473-2.214554 1.449784-.954498 3.311661-1.047775 4.856308-.229782 1.616623.857773 2.60051 2.56395 2.533081 4.392166-.00798.216019-.031311.428894-.070129.63707z" fill="#613102"/><path d="m256.14328 112.585762 3.397553 3.025055 6.830841-9.637421 1.94934.441414-.052551 4.882401c-.057587 5.392059-2.763458 10.411308-7.23526 13.42321l-1.896728-.258606c-3.799485-.518417-7.276551-2.411156-9.774918-5.320061l.326797-.589462c1.458542-2.628121 3.720276-4.719315 6.454926-5.96653z" fill="#fc9"/><path d="m242.8237 61.650848-4.70372 5.150223c-7.475937 8.18483-18.830811 10.60788-28.632767 6.109436l13.51268-15.500458z" fill="#333"/><path d="m236.593491 64.53157 2.465805 4.276658c3.083648 5.350128 9.033691 7.917343 14.687042 6.336715l-1.860138-10.43898-12.826904-4.713226z" fill="#333"/><path d="m228.465744 181.726242c.368713.808319.507538 1.703018.40036 2.5849h-12.578888l-.109222-.800171c-.030838-.225067.007187-.453918.109222-.656158h11.195557l.236328-.436722c.166199-.306473.428513-.549378.746643-.691849zm7.571243 0c-.368698.808319-.507675 1.703018-.400634 2.5849h12.57872l.109542-.800171c.030686-.225067-.007522-.453918-.109542-.656158h-11.195267l-.236633-.436722c-.165894-.306473-.428177-.549378-.746186-.691849z" fill="#ebab6c"/><path d="m235.037903 74.306427 1.3703 3.123047c3.27208-.470047 5.750382-.221329 8.678452 1.541153l1.188156-1.195877c-2.757508-2.887299-6.177002-4.186615-9.702286-3.686219zm-5.573227 0-1.370148 3.123047c-3.272354-.470047-5.750366-.221329-8.678436 1.541321l-1.188004-1.195725c2.75705-2.887619 6.17685-4.186935 9.701966-3.686539zm10.322647 3.742737c1.31456 0 2.380005 1.297142 2.380005 2.897331 0 .54689-.124558 1.058449-.341156 1.495003-.751801-.277069-1.795349-.448479-2.94841-.448479-.448532 0-.880798.026169-1.285797.074211-.118927-.344833-.184662-.723617-.184662-1.120735 0-1.600189 1.06543-2.897331 2.38002-2.897331zm-15.072037 0c-1.314605 0-2.380035 1.297142-2.380035 2.897331 0 .54689.124573 1.058449.341019 1.495003.752273-.277069 1.795333-.448479 2.948425-.448479.448837 0 .88092.026169 1.28595.074211.118942-.344833.184677-.723617.184677-1.120735 0-1.600189-1.065628-2.897331-2.380036-2.897331z" fill="#333"/><path d="m265.79953 108.436836-.20282-2.644081c-.074829-.966865.233795-1.924339.858246-2.66629.476685-.565842 1.160278-.916001 1.897705-.971718.618164-.046486 1.235687-.099243 1.8526-.157944.88266-.084373 1.680817.526726 1.830109 1.400757l1.784729.158272c.569305.050232 1.028778.486015 1.109558 1.05188.081055.565834-.238525 1.112884-.770599 1.32061l-.474823 2.937698c-.165589 1.027771-1.084534 1.761269-2.123719 1.694588l-4.269867.045395z" fill="#fc9"/><path d="m209.467636 113.870224-3.257492 7.194656-1.393158 1.782517c-3.674118 4.7024-4.594162 10.179947-7.337585 15.687195l1.917724 1.50798 5.336594-3.516541c3.537964-2.331298 6.472778-5.697906 8.505051-9.756668l4.169143-6.886901c-1.996612-3.476189-3.708252-6.392312-7.940277-6.012238z" fill="#fc9"/><path d="m200.827362 136.722641 2.413849 1.096329c.882965.401336 1.5728 1.13327 1.921646 2.038299.265884.689987.242706 1.458237-.064011 2.130982-.257309.564422-.508773 1.130737-.754806 1.699875-.351654.81427-1.272019 1.218734-2.109573.927597l-.9991 1.487945c-.318649.474884-.921616.667114-1.456238.46489-.534729-.20192-.860107-.744766-.785141-1.311692l-2.344498-1.832305c-.819885-.641144-1.019271-1.80011-.460266-2.678193l2.019303-3.763259z" fill="#fc9"/><path d="m232.251602 128.137711c4.781983 0 8.682221-4.008965 8.682221-8.924248 0-4.914986-3.900238-8.923958-8.682221-8.923958-4.782287 0-8.682525 4.008972-8.682525 8.923958 0 4.915283 3.900238 8.924248 8.682525 8.924248z" fill="#e05109"/><g fill="#f8c823"><path d="m242.994629 71.810287c6.662659 0 12.096878-5.434722 12.096878-12.099182 0-6.664428-5.434219-12.100128-12.096878-12.100128-6.663178 0-12.0979 5.4357-12.0979 12.100128 0 6.66446 5.434722 12.099182 12.0979 12.099182z"/><path d="m248.191803 83.635551c6.663162 0 12.097382-5.435646 12.097382-12.100059 0-6.664429-5.43422-12.100174-12.097382-12.100174s-12.097885 5.435745-12.097885 12.100174c0 6.664413 5.434723 12.100059 12.097885 12.100059z"/><path d="m221.935822 71.810287c6.663162 0 12.096939-5.434722 12.096939-12.099182 0-6.664428-5.433777-12.100128-12.096939-12.100128-6.663407 0-12.097825 5.4357-12.097825 12.100128 0 6.66446 5.434418 12.099182 12.097825 12.099182z"/><path d="m216.737747 83.635551c6.663162 0 12.097824-5.435646 12.097824-12.100059 0-6.664429-5.434662-12.100174-12.097824-12.100174-6.662704 0-12.097397 5.435745-12.097397 12.100174 0 6.664413 5.434693 12.100059 12.097397 12.100059z"/></g><path d="m213.731201 68.309494c-1.794098 0-3.26268 1.849121-3.28038 4.131439-.01767 2.281418 1.422226 4.131546 3.216324 4.131546s3.262436-1.850128 3.280121-4.131546c.01773-2.282318-1.421967-4.131439-3.216065-4.131439zm37.467087 0c1.793838 0 3.26268 1.849121 3.280319 4.131439.017731 2.281418-1.42218 4.131546-3.216018 4.131546-1.794358 0-3.262696-1.850128-3.280427-4.131546-.017623-2.282318 1.422272-4.131439 3.216126-4.131439z" fill="#d1784d"/><path d="m223.772522 68.309494h17.384445c8.428162 0 15.323685 6.896301 15.323685 15.326057 0 8.429749-6.895523 15.326165-15.323685 15.326165h-17.384445c-8.428162 0-15.323685-6.896416-15.323685-15.326165 0-8.429756 6.895523-15.326057 15.323685-15.326057z" fill="#e8986f"/><path d="m229.2314 56.484131h6.46669c8.428161 0 15.323669 6.896866 15.323669 15.326568v15.326668h-37.114044v-15.326668c0-8.429702 6.895523-15.326568 15.323685-15.326568z" fill="#e8986f"/><path d="m226.538757 92.668015c.745118-2.377327 3.115982-4.115647 5.925995-4.115647 2.809586 0 5.180863 1.73832 5.925934 4.115647z" fill="#613320"/><path d="m228.215256 90.123016c1.106537-.973541 2.602295-1.570648 4.248977-1.570648 1.647705 0 3.143464.597107 4.25 1.570648-1.252273.310181-2.70288.487229-4.249481.487229-1.546615 0-2.997223-.17746-4.249496-.487229z" fill="#fffffe"/><path d="m232.465256 85.114456c2.146866 0 3.897812-.66468 3.897812-1.478905 0-.814117-1.750946-1.478813-3.897812-1.478813-2.147385 0-3.898361.664696-3.898361 1.478813 0 .814225 1.750976 1.478905 3.898361 1.478905z" fill="#d1784d"/><path d="m219.302795 79.300957c2.487244 0 3.773056 2.146858 2.872422 4.795326-.900238 2.648453-3.646439 4.795212-6.133225 4.795212-2.486847 0-3.772857-2.146759-2.872421-4.795212.900436-2.648468 3.646393-4.795326 6.133224-4.795326z" fill="#da6960"/><path d="m244.601257 79.300957c-2.487243 0-3.773056 2.146858-2.872467 4.795326.900284 2.648453 3.646485 4.795212 6.133225 4.795212 2.486831 0 3.773056-2.146759 2.872467-4.795212-.900681-2.648468-3.646378-4.795326-6.133225-4.795326z" fill="#da6960"/><path d="m232.465256 64.102509c6.662658 0 12.096863-5.435227 12.096863-12.099656 0-6.664459-5.434205-12.099899-12.096863-12.099899-6.663208 0-12.097901 5.43544-12.097901 12.099899 0 6.664429 5.434693 12.099656 12.097901 12.099656z" fill="#f8c823"/><path d="m224.982422 65.127213c.478271-.072159.880142-.396393 1.052948-.848664.172745-.451767.089371-.961365-.21846-1.33493-.308274-.372605-.793076-.551499-1.269455-.467148-3.465698.611526-6.36232 2.984268-7.644867 6.261536-.334366.853256.746033 1.061904.99939.665084 1.883728-2.945571 2.391357-3.565109 7.080444-4.275878z" fill="#f8c823"/><path d="m223.688705 69.440414c2.094681 0 3.793091 2.441132 3.793091 5.452454 0 1.2939-.313431 2.481705-.836853 3.416916l-.185333-.000916c-2.062119 0-3.945847.202134-5.384369.536148-.726532-.993499-1.179626-2.396484-1.179626-3.952148 0-3.011322 1.698394-5.452454 3.79309-5.452454z" fill="#fffffe"/><path d="m223.948578 73.202972c1.125107 0 2.037414 1.311631 2.037414 2.929795 0 .875671-.267318 1.660934-.691116 2.198517-.890396.033538-1.73468.104797-2.50824.20816-.52948-.529129-.875976-1.409912-.875976-2.406677 0-1.618164.91185-2.929795 2.037918-2.929795z" fill="#2c2926"/><path d="m224.833374 72.49823c.636627 0 1.152618.742035 1.152618 1.657684 0 .914826-.515991 1.657288-1.152618 1.657288-.637054 0-1.15303-.742462-1.15303-1.657288 0-.915649.515976-1.657684 1.15303-1.657684z" fill="#fffffe"/><path d="m241.240738 69.350906c-2.094696 0-3.793045 2.441239-3.793045 5.452469 0 1.294007.313385 2.481705.836899 3.416504l.185272-.000412c2.062073 0 3.945907.202133 5.384384.53566.726517-.993118 1.179627-2.3965 1.179627-3.951752 0-3.01123-1.698365-5.452469-3.793137-5.452469z" fill="#fffffe"/><path d="m240.980957 73.113571c-1.125198 0-2.037399 1.311646-2.037399 2.929276 0 .875686.267196 1.661468.691055 2.198547.890396.033539 1.734726.105194 2.508652.20813.529022-.529114.876022-1.409378.876022-2.406677 0-1.61763-.912308-2.929276-2.03833-2.929276z" fill="#2c2926"/><path d="m242.294189 72.408829c-.637054 0-1.153015.741943-1.153015 1.657272 0 .915253.515961 1.657196 1.153015 1.657196.636643 0 1.153031-.741943 1.153031-1.657196 0-.915329-.516388-1.657272-1.153031-1.657272z" fill="#fffffe"/><path d="m239.947067 65.037827c-.477752-.072678-.880203-.396912-1.053344-.848679-.172333-.451859-.088578-.961395.218795-1.334976.308274-.372605.793076-.551438 1.269516-.467606 3.465699.611527 6.36232 2.984268 7.645279 6.261948.333969.853348-.746506 1.061508-.999756.665191-1.883819-2.945694-2.391342-3.565124-7.08049-4.275878z" fill="#f8c823"/><path d="m232.465256 53.702042c4.240112 0 7.698791-2.736023 7.698791-6.091065 0-3.354584-3.458679-6.091049-7.698791-6.091049-4.240692 0-7.69986 2.736465-7.69986 6.091049 0 3.355042 3.459168 6.091065 7.69986 6.091065z" fill="#fadb3d"/><path d="m31.652081 179.054276h148.786121v-84.682351h-148.786121z" fill="#f9aa89"/><path d="m31.652081 100.891365 148.786121 10.170845v-15.393837h-148.786121z" fill="#e68572"/><path d="m137.872147 179.054276h42.566055v-84.682351h-42.566055z" fill="#e68572"/><path d="m29.7122 87.68177h153.009617c1.766403 0 3.211929 3.219941 3.211929 7.152893v.001358c0 3.932946-1.445526 7.151452-3.211929 7.151452h-153.009617c-1.76671 0-3.21196-3.218506-3.21196-7.151452v-.001358c0-3.932952 1.44525-7.152893 3.21196-7.152893z" fill="#ffceae"/><path d="m192 59.5c0-14.635544-19.027893-26.5-42.5-26.5-23.472099 0-42.5 11.864456-42.5 26.5s19.027901 26.5 42.5 26.5c23.472107 0 42.5-11.864456 42.5-26.5z" fill="url(#a)"/><path d="m167 59.5c0-14.635544-18.132477-26.5-40.5-26.5-22.367531 0-40.5 11.864456-40.5 26.5s18.132469 26.5 40.5 26.5c22.367523 0 40.5-11.864456 40.5-26.5z" fill="url(#b)"/><path d="m101.732719 38.605423h49.506798c4.103134 0 8.324219 3.357422 9.382019 7.460709l8.795029 34.154396c1.056061 4.105049-1.435761 7.461242-5.537048 7.461242h-49.508629c-4.101296 0-8.323601-3.356193-9.380806-7.461242l-8.795655-34.154396c-1.055969-4.103287 1.435227-7.460709 5.538292-7.460709z" fill="#4d4441"/><path d="m165.019348 63.144806 4.397217 17.075722c1.056061 4.105049-1.435761 7.461242-5.537048 7.461242h-49.508629c-4.101296 0-8.323601-3.356193-9.380806-7.461242l-4.397248-17.075722z" fill="#332d2a"/><path d="m100.592834 63.144806h64.426514l-5.189667 14.115524c-2.107833 5.731659-8.520065 10.42144-14.2518 10.42144h-43.58638c-5.730583 0-8.695542-4.689781-6.588318-10.42144z" fill="#7d6f6a"/><path d="m217.762848 27.945724 8.641373-27.945724-24.771958-.026932z" fill="#fff"/></g></svg>