<svg height="251" viewBox="0 0 500 251" width="500" xmlns="http://www.w3.org/2000/svg" xmlns:xlink="http://www.w3.org/1999/xlink"><radialGradient id="a" cx="103.194761" cy="149.634141" gradientTransform="matrix(1 -.000175 .000175 1 -.025529 .020643)" gradientUnits="userSpaceOnUse" r="41.501014"><stop offset=".00001" stop-color="#5fd35f"/><stop offset="1" stop-color="#5fd35f" stop-opacity="0"/></radialGradient><g fill-rule="evenodd"><path d="m21.346142 158.417389 5.309326-7.734955.689436-14.473572 18.954554.584046c.17583 1.435913.505806 4.312957-.524746 7.23999-.820298 2.329773-1.100815 4.396759-.515404 7.068451.32996 1.505981-1.342816 1.223572-2.04887 2.543152-1.020375 1.907654-1.272976 4.211212-1.92392 4.769378-.456161.391068-4.458404-.045532-7.021572-2.411071l-2.061699 3.721527 5.374859 6.126861z" fill="#633"/><path d="m44.204102 192.154633 20.212692-5.226395 3.493591 3.651688-8.592193 8.935058c-3.359894 3.494415-7.601826 6.017243-12.278012 7.302277z" fill="#633"/><path d="m62.743622 188.551834-.000355-2.03241c-.000267-1.523757.587631-2.988937 1.641171-4.090622 1.002044-1.047912 1.689338-2.356414 1.982795-3.776092.101036-.488373.452881-.887024.924591-1.048538.471993-.161743.994568-.062287 1.373909.261612.903199.770843 1.152008 2.064377.598557 3.114685-.308159.585357-.220223 1.300522.221023 1.793701l5.854554-9.346161.819252 4.436462c.154266.833802.0326 1.695282-.345551 2.454255l-.905342 2.548629c-.288895.812943-.71759 1.569107-1.266678 2.23436l-5.731163 5.478211z" fill="#633"/><path d="m39.821156 213.273102 25.667347-21.046265c6.7733-5.554046 16.736251-4.726013 22.498359 1.869751l22.360024 34.846085-11.826012.002075-8.507996-4.530594c-6.150436-3.274887-11.326698-8.11438-15.005378-14.029358l-9.801888 14.033707c-3.861889 5.529373-11.095981 7.559097-17.272968 4.846847-6.177502-2.712005-9.574425-9.409973-8.111488-15.992248z" fill="#5656ed"/><path d="m56.229675 207.813004 6.422684-.929703c1.553345-.224793 3.13588.103668 4.471405.927795.672821.415375 1.217674 1.008484 1.574646 1.713989 1.113312 2.202027 2.226395 4.404282 3.338226 6.607041l-16.688038-3.772827z" fill="#633"/><path d="m48.382603 211.860245 26.475063 3.382705c4.366722.365464 8.690376 1.13089 12.917046 2.286225 13.389045 3.661285 21.373733 6.231506 35.178566 7.683838 3.21112.337829 5.709808 2.94104 5.914459 6.161041.204254 3.22023-1.945038 6.118042-5.08754 6.858917l-32.520882.005692c-3.974815.000686-7.937728-.435578-11.817626-1.300156l-19.51204 1.305634-23.085106.004043c-7.192523.001251-13.469989-4.875244-15.242353-11.841644-1.773088-6.966385 1.410313-14.246872 7.730497-17.679443 6.319203-3.432587 14.164219-2.14235 19.049916 3.133148z" fill="#66f"/><path d="m119.896271 224.862152-3.444557-.473083c-.000603-3.454865 4.380874-4.676773 6.808364-1.870697l4.73565-3.776825.724777-1.448975c.789108-1.57811 2.402725-2.575256 4.16806-2.575562 1.76535-.000305 3.379318.996277 4.169205 2.574097.897232 1.792221 1.274154 3.800186 1.08844 5.795914-.309037 3.317673-1.710343 6.438858-3.984604 8.875839-1.611649 1.726135-2.628006 3.923111-2.900223 6.268799l-11.599518.002029c2.889908-1.83847 4.838158-9.961837.234406-13.371536z" fill="#fff"/><path d="m21.346148 158.417389-3.814826 6.58783c-3.895972 6.7276-5.915032 14.495086-5.822666 22.397766.171497 14.656921 3.285693 29.105819 9.134075 42.376266l3.299899-2.595627c8.552354-6.726928 18.191106-11.727722 28.438306-14.753113l-1.111583-3.529113c-1.621834-5.150147-3.730206-10.111145-6.293778-14.807434l-.10477-9.661271c-.151894-14.00769-10.576474-25.438735-23.724657-26.015304z" fill="#fc683a"/><path d="m21.108767 184.35556c1.13388 9.742417 2.466493 19.323166 7.921993 28.239029 11.148527 5.151901 21.217153 4.78096 33.717264 1.101105l-.595306-4.190674-9.572995-4.01091-12.01757-6.710251c.61779-6.74205-.554779-10.714035-2.721115-17.200149-4.517159-3.217499-12.435948-1.814102-16.732271 2.77185z" fill="#633"/><path d="m79.266769 167.476349-.865913-.52713c-.123451-.075119-.285591-.035767-.360794.087555l-9.285767 15.23294c-.075195.123108-.035705.28537.087601.360276l.865936.527343c.12307.075028.285324.035584.360512-.087524l9.28579-15.233185c.07518-.123108.035705-.28511-.087365-.360275z" fill="#fff"/><path d="m46.386993 141.082138 1.004467-2.673569c1.09858-3.013946.327614-6.391937-1.970661-8.631103-2.298042-2.239388-5.696895-2.924385-8.683582-1.750336l-5.877209.944916c-5.042967.811066-8.528448 5.47995-7.8701 10.541992.542767 4.166901 1.528954 8.264099 2.942436 12.221848l2.46546-.705124c1.846247-.527985 3.270129-2.000122 3.736401-3.861939.219086-.875778.88184-1.572601 1.746136-1.835815 1.257633-.383072 2.033477-1.642166 1.809837-2.936951-.195011-1.127075.298492-2.262009 1.255711-2.888763.957469-.626648 2.195423-.625107 3.151618.003753 1.865567 1.227326 4.094735 1.781815 6.289486 1.571091z" fill="#261111"/><path d="m32.923206 149.273071c-1.076416.000183-1.954904-1.75029-1.955278-3.896667-.000376-2.146408.877499-3.897431 1.953913-3.897614 1.07669-.000183 1.955177 1.750519 1.955555 3.896927.000373 2.146378-.877499 3.897171-1.95419 3.897354z" fill="#633"/><path d="m41.88467 149.2715c-.729721.000137-1.325699-.975464-1.325908-2.171814-.00021-1.196106.595424-2.172119 1.325145-2.172257.729702-.000122 1.325177.975693 1.325386 2.171784.00021 1.19635-.594925 2.172149-1.324623 2.172287z" fill="#261111"/><path d="m44.170929 146.362793-4.301315.000763-.00034-1.948258 4.301315-.000747z" fill="#633"/><path d="m44.707882 145.385834.24604-1.821167-1.445144-.09845c-1.313195-.08934-2.632267.032883-3.907406.361877l.263115 1.345139c.96001-.105026 1.929172-.105179 2.889492-.000504z" fill="#261111"/><path d="m424.031921 191.893631-43.325134.007584 9.562164 50.426727 43.325837-.007584z" fill="#fff"/><path d="m381.90686 198.232941 5.04419 26.598877c12.560242-8.135483 28.296844-9.938233 42.423309-4.767044l-3.277191-17.282608z" fill="#9fd3f5"/><path d="m477.19101 103.807419-130.362977.022812c-3.948333.000686-8.147277 3.229339-9.331024 7.17456l-28.0737 93.576126-5.70227 2.515366 6.394684 5.186844c.137695.125992.283508.244568.437805.355026l.00647.005417h.000366c.876983.627411 2.007538.987747 3.326538.987518l133.589386-.023391c3.948273-.000687 8.147278-3.230042 9.331299-7.176606l28.636261-95.452194c.66391-2.211822.244445-4.198135-.948029-5.517136l-4.504791-6.146102z" fill="#0081b0"/><path d="m475.590027 97.301254-134.985962.023621c-3.989746.000702-8.232422 3.263992-9.428375 7.250152l-28.936127 96.45047c-1.195953 3.985917 1.08905 7.248764 5.079071 7.248063l134.985687-.023621c3.989624-.000702 8.232331-3.264679 9.42865-7.25061l28.936127-96.450455c1.195953-3.986176-1.089386-7.248322-5.079071-7.24762z" fill="#07a1d9"/><path d="m473.622559 104.158783-135.165436.023651-29.171387 97.233597 135.165772-.023651z" fill="#56d0fc"/><path d="m401.817444 232.39801c-16.204804.002838-30.844757 3.810074-41.315277 9.935135l82.634765-.01445c-10.473358-6.121399-25.114288-9.923523-41.319488-9.920685z" fill="#0081b0"/><path d="m446.459351 124.363579-17.050415 56.831383-92.959626.016265 17.049774-56.831375z" fill="#ffb700"/><path d="m331.965271 63.589066 81.946594 27.751724-20.388061 60.126709-81.947327-27.751457z" fill="#fff"/><path d="m335.930573 71.615265 69.951171 23.688537-16.323944 48.137497-69.949768-23.688613z" fill="#9cc9ff"/><path d="m394.974274 127.46756-5.416474 15.973739-69.949768-23.688613 5.919434-17.457016s10.012756-1.293107 14.801147-3.710267c5.168824-2.609222 19.164826-10.662948 19.164826-10.662948s2.736114 3.263077 4.168365 9.82608c.915711 4.196015-.025909 15.565506 2.55188 13.391007 16.174347-13.643952 16.636047-8.209412 16.636047-8.209412z" fill="#c63"/><path d="m382.495972 102.408813s-2.651429 4.419419-4.164978 9.660981c-.967682 3.351165 2.374542 8.865707 2.168548 10.82576-.631988 6.013366-.831177 12.325302-.831177 12.325302l16.332367-5.499207-.166687-.166534" fill-opacity=".325927"/><path d="m359.326752 87.922485s-3.818085 4.419632-5.331635 9.661179c-.967682 3.351166 2.374542 8.865723 2.168549 10.825775-.631989 6.013352-4.830872 13.991547-4.830872 13.991547l9.834015 3.995628 2.165527-6.66262s2.622559-18.316452-.504394-24.983323c-1.086121-2.315734-3.50119-6.828186-3.50119-6.828186z" fill-opacity=".325927"/><path d="m392.609344 134.440353-3.051544 9.000946-69.949768-23.688613 2.83194-8.353348c1.499573.838043 2.353088 2.91951 2.451172 5.569397 2.139282-2.157547 4.943359-3.121063 7.473694-2.26355 1.16452.394607 2.141174 1.129364 2.893463 2.102829 2.690216-4.134613 6.182403-6.429245 8.998321-5.475525 2.796295.947632 4.172943 4.84259 3.821137 9.713364 1.558288-1.008332 3.210235-1.365479 4.700989-.859757 1.019989.345078 1.85495 1.0569 2.479705 2.03064 2.165619-2.625153 4.835999-3.945526 7.103852-3.177033 2.768554.937134 4.120086 4.706414 3.613586 9.177369 1.475586-.838265 3.038666-1.100426 4.471771-.615448 1.186158.401672 2.131012 1.265564 2.796509 2.438293 1.567627-1.275116 3.314575-1.800629 4.868958-1.274292 2.059814.697357 3.262573 3.066406 3.351867 6.022644 2.103882-3.000336 5.183167-4.564697 7.849274-3.661728 1.495392.506607 2.621979 1.709091 3.295074 3.313812z" fill="#b2de42"/><path d="m343.466949 76.449188c2.129609.720749 3.270691 3.030884 2.5495 5.159409-.722565 2.128143-3.033569 3.268768-5.163818 2.548096-2.128907-.721726-3.269989-3.031601-2.548767-5.159745.721191-2.128509 3.033538-3.269104 5.163085-2.54776z" fill="#fff"/><path d="m427.937286 130.76683 1.47165 50.428132-92.959626.016265-1.12503-38.535553 45.373901-.007949 5.915619-11.893662z" fill="#ffe500"/><path d="m216.945099 110.379776 89.779632 9.571091 9.599854-89.929703-89.779648-9.571075z" fill="#fff"/><path d="m229.972931 24.773178 81.948395 8.736221-1.908905 17.881943-6.833161 64.011978-81.948364-8.736221z" fill="#ffefd6"/><path d="m269.428711 38.757385 4.391968-.940918c2.775329-.594681 5.457458.002396 7.373657 1.641434 3.410644 2.91745 5.835968 6.828445 7.038788 11.351273 1.099701 4.13507 3.572357 7.558609 7.056549 9.770782 5.349792 3.39708 7.148315 10.403946 4.417572 17.209747-2.730805 6.806122-9.338074 11.784027-16.228333 12.226242l-19.862365-17.600601.263641-.785766z" fill="#332d2a"/><path d="m275.830536 39.179749-3.304138-1.17186c-4.446656-1.576752-9.399201-.622086-12.939789 2.494583-3.764023 3.313507-7.635285 6.503586-11.607239 9.56514-3.089966 2.381958-4.899338 6.061996-4.898239 9.961975.001068 3.900039 1.812637 7.578796 4.904022 9.958999 3.550705 2.733963 5.743942 6.869492 6.014557 11.340821.404755 6.692779 5.342911 12.238327 11.948074 13.417099z" fill="#332d2a"/><path d="m256.435028 87.132889-4.724716 5.629455c-3.964569 4.724045-6.66423 10.335862-7.897522 16.312134l18.223587 1.942749z" fill="#f5a40e"/><path d="m258.125732 61.728287c1.91858.204513 3.308045 1.924621 3.103363 3.842178-.204681 1.917313-1.926025 3.306107-3.844604 3.101578-1.918594-.204544-3.307953-1.924957-3.103287-3.84227.204697-1.917557 1.925949-3.306046 3.844528-3.101486zm-.089935.842605c-1.453094-.154907-2.756882.896622-2.91188 2.348725-.154999 1.45195.897445 2.754898 2.35054 2.909805 1.453155.154907 2.756714-.896851 2.911712-2.348816.154999-1.452118-.897216-2.754791-2.350372-2.909714z" fill="#fff"/><path d="m280.172729 74.522034-11.046264-1.177597-12.691437 13.788452c-2.653885 2.882843-4.113296 6.664871-4.083939 10.582001.024582 3.245529 1.783478 6.230621 4.612168 7.826324l-.520905 4.879654 32.427094 3.45694z" fill="#4d4441"/><path d="m252.3806 96.637833c-.022125.357589-.032074.716659-.029511 1.077057.024582 3.245529 1.783478 6.230621 4.612168 7.826324l1.202362-.747314c1.932281-1.201355 4.423767-.996064 6.133575.504776 2.023407 1.776199 3.602356 3.986572 4.627289 6.453079l12.191498 1.299698-6.980713-31.96402-2.578155 3.380096c-1.883393 2.469193-3.571961 5.081238-5.05008 7.812271-2.371856 4.381882-7.432556 6.577362-12.255432 5.317246-.699783-.182617-1.335586-.514313-1.873001-.959213z" fill="#332d2a"/><path d="m280.172699 74.522034-3.909302-4.685471-10.908081 2.003784.90799 9.009064z" fill="#4d4441"/><path d="m280.172729 74.522034 3.413422 2.160644c5.316773 3.365494 9.255737 8.517822 11.10733 14.528809l8.066925 24.147186-30.815429-3.285126-1.576782-4.48056c-2.104828-5.982178-2.171112-12.492035-.187958-18.515625 1.877594-5.70285 5.344024-10.752335 9.992492-14.555328z" fill="#fb0"/><path d="m306.987823 79.725632-14.608917 20.157837c-2.841217 3.088134-3.50235 7.599197-1.666198 11.37178.573974 1.17923 1.355712 2.211304 2.286682 3.062836l10.179901 1.085251z" fill="#f5793b"/><path d="m308.049164 69.783081c-3.149079 1.83992-5.505066 5.480438-5.973602 9.869888-.468659 4.390076 1.065856 8.445038 3.755706 10.90709z" fill="#f5793b"/><path d="m276.263397 69.836563-1.897125-11.666199-9.010956 13.669983z" fill="#e36120"/><path d="m256.057007 49.23558-.609986 5.714524c3.719483 4.375931-2.355865 5.991943 4.507447 15.569824.505981 1.359573 1.837799 2.232468 3.28717 2.154282 6.337555-.341996 10.489929-6.115998 11.981415-11.80687l3.588104-14.89801z" fill="#f5793b"/><path d="m256.674133 63.841492c.245728 1.185486.750702 2.570663 1.70755 4.246353-.897155-2.043762-.236663-3.191727.6651-3.680496.607087-1.262833.893616-2.655335.834717-4.054657l-.081482-1.95073-1.273987-2.123687-2.216247-.049347c1.166107 2.357666-.359284 4.118454.364838 7.612625z" fill="#e36120"/><path d="m272.479828 60.468155c1.918671.204544 3.308227 1.924637 3.103577 3.841965-.204651 1.917312-1.926117 3.306076-3.844788 3.101532-1.91864-.204529-3.308167-1.924958-3.103516-3.842255.204682-1.917328 1.926087-3.305786 3.844727-3.101242zm-.089905.842377c-1.453064-.154892-2.756622.896621-2.911652 2.348739-.154998 1.452194.897217 2.755112 2.350281 2.910019 1.453095.154907 2.756653-.896866 2.911682-2.349045.154999-1.452133-.897247-2.754791-2.350311-2.909713z" fill="#fff"/><path d="m259.548279 48.788406-1.496918 1.906083c-2.405106 3.061615-3.125595 7.119445-1.921509 10.820999l-2.165024-1.86969c-2.323333-2.005875-3.209457-5.212342-2.245651-8.125458.963272-2.913269 3.586945-4.960251 6.648834-5.187744 1.14383-.085037 2.291138-.111832 3.437562-.080429z" fill="#332d2a"/><path d="m259.548279 48.788406 1.872009 1.073197c2.955048 1.693512 5.202454 4.392212 6.332642 7.603744 2.235016 6.352082 8.751434 10.145584 15.383209 8.95517l-.459259-22.935059-.663147-.070694-21.843536-.838653z" fill="#332d2a"/><path d="m259.252472 66.695786c2.572479 2.906463 4.538116 3.116012 5.896851.628646-1.965607-.209549-3.931244-.419098-5.896851-.628646z" fill="#fff"/><path d="m235.795715 86.679688-.627548-2.722947c-.520477-2.257812-1.369186-4.325027-3.112671-5.852417-.361038-.316467-.896515-.329895-1.273193-.032241-.376618.297668-.486649.821517-.26178 1.245559l2.449905 6.512192c-.046081.024689-.090957.050934-.134765.079254l-.891403-1.425888c-1.375824-2.20134-2.850602-4.263657-5.254731-5.245056-.497741-.203293-1.069824-.022202-1.359787.430237-.289917.452621-.215255 1.047561.177735 1.414322l5.329986 6.433395c-.043594-.00383-.087463-.006088-.131576-.005936-.831146.005036-1.535584.769516-1.805908 1.839188l-1.058976.830353c-.909256.950607-.96347 2.430786-.126373 3.44548.869019 1.053024 2.377792 3.424591 3.845459 5.010254l-.287018 9.102219.847596.090362 4.86737.518891 4.192612.44696-1.99318-11.797943c2.094651-2.3862 2.600007-5.057922.82724-8.086044-.608779-1.039673-1.815353-1.573868-2.99504-1.324952z" fill="#f5793b"/><path d="m254.951248 55.434204c1.869095-.421142 3.374008-.703232 4.773697 1.272812l.075104 1.694702c-1.515351-1.831741-3.016571-2.231583-5.297089-.234894z" fill="#332d2a"/><path d="m269.112885 54.094376c-2.692322-1.051911-5.695405.263977-7.03888 2.121734l-.201202 1.884934c2.557037-1.995865 4.523681-3.08754 7.164734-1.289337z" fill="#332d2a"/><path d="m265.225433 57.343399c1.454956-.156021 2.541352.587845 2.426728 1.661835-.114624 1.073807-1.386872 2.070724-2.841828 2.226959-1.455017.155792-2.541443-.588104-2.426819-1.661835.114624-1.073837 1.386872-2.070724 2.841919-2.226959z" fill="#332d2a"/><path d="m264.952332 58.330612c1.171447-.12561 2.046173.473541 1.953857 1.338227-.092255.864364-1.116638 1.667266-2.288116 1.792877-1.171418.125686-2.046418-.473496-1.954133-1.337937.092316-.864685 1.116944-1.667495 2.288392-1.793167z" fill="#fff"/><path d="m265.076019 60.315674c.730713.077896 1.39029-.454148 1.468231-1.184296.077942-.730133-.454467-1.389328-1.18518-1.467239-.730622-.077881-1.390412.454223-1.468353 1.184372-.077942.730133.454681 1.389267 1.185302 1.467163z" fill="#332d2a"/><path d="m258.082092 57.476517c-.959259-.413483-1.829651.121902-1.944275 1.195633-.114624 1.07373.569886 2.279556 1.529175 2.692947.959107.41362 1.829743-.121902 1.944336-1.195709.114655-1.073975-.570099-2.279495-1.529236-2.692871z" fill="#332d2a"/><path d="m258.238892 58.274841c-.77237-.332672-1.473175.098282-1.565461.962738-.092285.86467.458863 1.83548 1.231202 2.168366.772308.333069 1.473053-.098145 1.565338-.962738.092285-.86467-.458771-1.835312-1.231079-2.168366z" fill="#fff"/><path d="m259.512756 60.365295c.078919-.24823.09372-.536895.031159-.851059-.123596-.617569-.519989-1.196472-1.034577-1.593246-.682098.174622-1.115722.854218-.976257 1.552567.144257.722274.847015 1.190551 1.569794 1.046386.148346-.029785.285949-.082962.409881-.154648z" fill="#332d2a"/><path d="m257.650238 60.335739c.241364.025711.458923-.149902.484619-.390869.025726-.241028-.149811-.458817-.391144-.484528-.241211-.025726-.458923.150147-.484649.391175-.025727.240936.149994.458496.391174.484222z" fill="#fff"/><path d="m264.059479 59.947357c.241394.025711.458923-.149887.48468-.391189.025696-.240708-.149872-.458329-.391235-.484055-.241089-.025696-.458893.149979-.484589.390686-.025757.241303.150055.458847.391144.484558z" fill="#fff"/><path d="m264.469208 83.100769c.730621.077881 1.390259-.454163 1.468261-1.184692.077912-.730057-.454559-1.389191-1.18518-1.467087-.730622-.077881-1.390259.454162-1.46817 1.184219-.078003.73053.454467 1.389664 1.185089 1.46756z" fill="#fff"/><path d="m268.33313 82.117798c.589752.062851 1.122162-.366486 1.185089-.955841.062897-.589356-.366852-1.12175-.956604-1.184616-.589722-.062867-1.122192.366958-1.185089.956299-.062927.58934.366882 1.121276.956604 1.184158z" fill="#fff"/><path d="m272.537079 79.286652c.538055.057373 1.023407-.334305 1.08078-.871857.057403-.537552-.334351-1.022873-.872406-1.080231-.537903-.057342-1.02359.334442-1.080994.871994-.057373.537537.334687 1.022766.87262 1.080094z" fill="#fff"/><path d="m276.687164 75.92131c.353791.03772.673188-.21994.710938-.573471.03772-.353347-.220123-.672699-.573853-.710418-.353912-.03772-.673218.220108-.710937.573455-.03772.353531.21997.672699.573852.710434z" fill="#fff"/><path d="m264.095001 79.352234c.531891.056702 1.012238-.330475 1.069-.862274.056794-.531952-.330993-1.011689-.862915-1.06839-.532226-.056748-1.012329.330475-1.069091.862427-.056794.531799.33078 1.011489.863006 1.068237z" fill="#fff"/><path d="m143.686157 127.414902 67.771286-5.568894-5.488922-66.709778-67.771286 5.568879z" fill="#fff"/><path d="m146.688293 124.488373 61.371369-5.042999-5.046341-61.330643-61.371353 5.042999z" fill="#dceefa"/><path d="m144.260895 94.986832 13.220718.014511c4.724259.034378 9.193482 2.145599 12.218582 5.771866l18.731385 4.933578 5.176361-.137543c5.299652-.140442 9.858032 3.722565 10.585067 8.97052l1.817841 5.073975-51.630814 4.242592.09935-7.406227-8.540451-1.069184z" fill="#e86625"/><path d="m164.633682 123.013763-10.253647.842568.05275-3.928917c.026657-1.98938-1.430954-3.66217-3.406677-3.9095l-5.087174-.636994-.78685-9.562927 8.268509 1.141007c1.343491.185104 2.43187.837936 3.227494 1.935699.795791 1.097504 1.077056 2.334427.834671 3.667847l-.018967.104004c-.879212 4.835968 2.33078 9.468521 7.169891 10.347213z" fill="#d45515"/><path d="m169.700195 100.773209-.399612 1.849182c-.747513 3.457458.45021 7.046966 3.124374 9.364563 2.674088 2.317245 6.399475 2.993622 9.718369 1.764587 3.319168-1.228683 5.703903-4.167862 6.221512-7.666763l.066726-.377991-1.687362-.444549c-1.363221-.358841-2.261978-1.656281-2.118637-3.057816.23677-2.318954.654739-4.616241 1.249191-6.870468l-10.335007-2.299286-1.732422 5.873001c-.451584 1.530762-2.048294 2.422684-3.589584 2.0056z" fill="#f29d72"/><path d="m184.634949 102.868896c-.028412-.216308-.032532-.439224-.009384-.664474.23677-2.318954.654739-4.616241 1.249191-6.870468l-10.335007-2.299286-1.439758 4.880569c1.742416 3.314881 5.356384 5.459198 9.310074 5.134324.417022-.034272.825683-.095383 1.224884-.180665z" fill="#e38658"/><path d="m199.69751 115.548599-2.863053-7.677459c-1.105743-2.964875-3.674423-5.142106-6.782257-5.747605-1.759201-.342972-3.578796-.193451-5.258285.432083-.830673.309113-1.436936 1.033005-1.595474 1.904831-.158432.871475.154281 1.762131.822799 2.34375l1.606064 6.063248c.416611 1.572128 1.505829 2.880478 2.977127 3.575195 1.229569.580887 2.62088.683762 3.908585.306915l.878021 3.901169.554474-.045562 4.669739-.383728 3.213653-.264069z" fill="#f5b290"/><path d="m194.935425 104.815781c-.724945-1.289292-1.40419-4.029419-.227158-6.219757.276001-.513947.240494-1.139237-.091659-1.618744-.33252-.47963-.905548-.732636-1.484314-.655152-1.978928.264939-3.662171 2.999115-2.665512 4.607575.395996.638748.244171 1.473465-.351288 1.932312z" fill="#f5b290"/><path d="m168.715088 77.301804 19.167694-1.575043 1.197052 14.548263c.433426 5.267731-3.524628 9.931931-8.795868 10.365067-5.270981.433136-9.9384-3.522293-10.371826-8.790024z" fill="#f5b290"/><path d="m173.787827 76.884979 14.094955-1.158218.718811 8.736145c-2.535599-1.980621-5.901978-2.559982-8.960281-1.530579l-8.835999 2.97403z" fill="#f29d72"/><path d="m184.682632 89.427612c-.230835 2.552307-2.281295 4.662857-4.919723 4.879669-2.638214.216797-5.006027-1.530715-5.651215-4.011047z" fill="#fff"/><path d="m188.585022 84.261459 2.344284-3.072799c1.282105-1.680527 1.625488-3.895478.912628-5.88498-.712768-1.989563-2.385254-3.483108-4.443161-3.968414l-.045593-2.045181c-.045105-2.014008-1.224487-3.829804-3.046951-4.690705-1.822678-.8609-3.975205-.61911-5.561112.624558-4.033829 3.163605-8.253372 6.083466-12.635986 8.743988-2.662384 1.616135-3.819763 4.88089-2.769592 7.811722 1.050003 2.930832 4.018005 4.719223 7.101959 4.279449l17.680603-7.423874z" fill="#4d4441"/><path d="m180.414734 80.804626 4.437179-.364608c.518143-.042572.97696.346283 1.019593.864319.042618.51799-.346497.97647-.86464 1.019058l-4.437179.364609c-.518234.042572-.976959-.346238-1.019592-.864228-.042618-.518036.346374-.976562.864639-1.01915z" fill="#4d4441"/><path d="m181.394897 81.672195 2.631806-.216262.151718 1.843826c.059509.723099-.484177 1.363602-1.207657 1.42305-.723831.059479-1.36467-.483689-1.424164-1.206803z" fill="#4d4441"/><path d="m171.468903 81.539719 4.437179-.364609c.51825-.042587.977112.346283 1.019715.864319.042633.517975-.346482.976471-.864747 1.019043l-4.437179.364608c-.518265.042588-.977112-.346206-1.019715-.864196-.042633-.518036.346512-.976578.864747-1.019165z" fill="#4d4441"/><path d="m172.449051 82.407303 2.631851-.216278.151703 1.843811c.059494.723129-.483948 1.363586-1.20755 1.423065h-.000168c-.723724.059464-1.364624-.483673-1.424118-1.206802z" fill="#4d4441"/><path d="m169.977966 73.253738 7.615845-5.0018c1.014664-.666519 2.390823-.382126 3.057846.632095v.000061c.666931 1.014206.382324 2.389282-.632675 3.055954l-7.615601 5.001724c-1.014816.666535-2.390884.382065-3.057876-.632156-.666962-1.014221-.382355-2.389358.632461-3.055878z" fill="#7d6f6a"/><path d="m177.419876 117.999557c.148117-.012161.259079-.143035.246887-.291198-.012191-.148255-.14302-.259156-.291183-.246979-.148346.012192-.259369.14296-.247162.291214.012192.148163.143097.259155.291458.246963z" fill="#fff"/><path d="m95.738174 160.009216 48.431778-15.726364-10.771499-33.128509-48.431793 15.726371z" fill="#fff"/></g><path d="m87.869453 128.777023 44.40075-14.417465 9.07489 27.910462-44.400749 14.417465z" fill="#afe9dd"/><path d="m97.056267 156.465973 44.150566-14.336243-3.040314-9.037613c-5.939606 2.566452-9.458862 4.349839-15.233009 6.272415-5.807091 1.933533-10.427773-3.913803-17.169785.541474-2.192222 1.448608.968582 3.929382-6.310051 6.142731-1.732864.526931-2.783035 3.019409-4.816291 2.976928l2.419136 7.440247z" fill="#216778" opacity=".64423"/><path d="m108.096992 127.370583c-.188934-1.794655-1.797927-3.096451-3.593772-2.907647-1.795845.188813-3.098504 1.796738-2.909577 3.591385.18895 1.794663 1.797928 3.096451 3.593773 2.907654 1.795845-.188827 3.098503-1.796738 2.909576-3.591392z" fill="#c008a6" fill-rule="evenodd"/><path d="m96.918007 156.325684 44.150551-14.336213-1.952027-6.57225c-15.317459 4.905167-30.153724 9.806961-44.318168 14.39064l2.119262 6.517945z" fill="#abc837" opacity=".64423"/><path d="m96.918007 156.325684 44.150551-14.336213-1.952027-6.57225c-15.317459 4.905167-30.153724 9.806961-44.318168 14.39064l2.119262 6.517945z" fill="url(#a)" opacity=".46635"/><path d="m97.029053 156.382233 44.150558-14.336228c-9.2341-3.479919-16.862602 1.938126-26.300331 4.394058-8.004051.747284-13.192146 5.650635-17.850227 9.94217z" fill="#994f10" opacity=".38942"/><path d="m122.847725 133.177551c.142158.407746.35807.815293.663391 1.235291.294998.424988.533379.976929 1.156639 1.271896.627655.264908 1.595528.372589 2.555267.404144.945374.032868 2.249238.013443 3.074753-.183654.801285-.216507 1.352555-.605347 1.753784-1.022538.393296-.423706.578583-.969024.615494-1.458206.017456-.498047-.196243-1.060257-.433883-1.465317-.254609-.425659-.895432-.747772-.984772-.96643-.091339-.203629.228195-.314423.481644-.282257.243698.007278.655715.00827.993331.38446.322937.377686.846482 1.297028.968628 1.898163.107788.602631-.123672 1.200607-.26831 1.678955-.15007.460541-.338623.767212-.600815 1.107391-.270981.326279-.600418.621857-1.00441.873887-.102173.35643-.045028.725433.187821 1.119979.22882.391373.763748.89386 1.177475 1.225373.401611.318176.802124.559143 1.21492.707031.144638.429535.199768.883301.169693 1.401169-.040635.522659-.106278 1.228103-.358124 1.666443-.264969.417373-.853607.80278-1.145264.862961-.30011.049957-.614364-.174378-.5905-.540848.021393-.391953.705414-1.302017.731568-1.683548.009506-.364975-.238877-.45282-.618042-.559937-.388184-.120941-.935593-.184616-1.670136-.173675.086548.332824.021515.799225-.222503 1.4169-.25467.622162-.803376 1.805054-1.228943 2.26883-.439347.439575-1.184983.591491-1.302842.416382-.118835-.186142.423462-1.011551.614045-1.435883.187317-.424225.420105-.658142.489914-1.077362.050216-.431748.000045-.908203-.154648-1.468933-.730423.260513-1.49215.43251-2.34005.521667-.851456.089508-1.745209.091553-2.72142.010483-.262528.722366-.766503 1.385635-1.509209 2.018875-.752747.641632-2.452721 1.618164-2.953598 1.751831-.503777.107987-.311562-.618103-.042274-1.065536.256836-.460831 1.190925-1.09224 1.596016-1.612656.397789-.519775.651931-1.006058.775375-1.475006-1.002129-.118805-1.80513-.163071-2.476448-.11087-.669716.033538-.989159.144333-1.49321.38861-.51786.252869-1.153778.955872-1.562393 1.09433-.422081.114228-.955414-.02446-.897377-.346832.052398-.339981.783142-1.192551 1.230316-1.592606.447487-.396316.942833-.584426 1.406685-.754409.437889-.174729.853088-.284562 1.247215-.31485-.146606-.378189-.160934-.759033-.076462-1.179566.080559-.423919.542122-.862243.604592-1.317169.051063-.45758-.071099-1.058807-.241417-1.419464-.187157-.381073-.47815-.662979-.783226-.80011-.319237-.13179-.674286-.079758-1.0234-.006286-.34787.051391-.824272.417541-1.010612.359924-.199295-.074844-.289345-.407181-.142822-.727722.127945-.32219 1.03627-.81485.971473-1.149948-.080406-.344391-1.03173-.608445-1.372574-.877762-.345474-.276276-.524131-.400666-.659606-.743057-.151742-.359025-.239136-1.118332-.164528-1.35402.067245-.235016.302948-.160736.618492-.065033.311462.092148.917274.535813 1.274429.608567.344803.059341.515343-.102097.839401-.205918.304879-.109253.586304-.440429 1.046891-.433593.455299-.007431 1.250335.239975 1.698829.446289.437973.211425.752716.476226.946007.808746.152328.18988.464287.1828.951981-.008179.49047-.198517 1.396728-.955688 1.92749-1.154861.51123-.211945.894272-.207886 1.154899-.073532.245316.128616.48687.397247.346581.845825-.151596.446182-.658867 1.429565-1.227654 1.827728-.573577.38382-1.303314.545105-2.203567.485443z" fill-rule="evenodd"/></svg>