<svg height="50" viewBox="0 0 50 50" width="50" xmlns="http://www.w3.org/2000/svg"><path d="m1 9v30.638298h48v-30.638298zm1.720941 1.34948h44.294119l.440468 28.287498h-44.294116l-.440754-28.287498zm1.279342 1.261737.441882 25.459031h41.778355l-.440472-25.459031zm30.926116 1.783982c1.94965 0 3.529412 1.559772 3.529412 3.481628 0 1.92325-1.579762 3.481627-3.529412 3.481627-1.948234 0-3.529411-1.558377-3.529411-3.481627 0-1.921856 1.581177-3.481628 3.529411-3.481628zm-2.248939 11.751184c4.799999.052922 11.337883 3.655707 11.337883 3.655707l.22023 6.396442-37.808467-.260429.08753-8.921315s3.91906-.836982 6.618352.60859c2.697882 1.446962 4.781647 3.147388 7.322824 2.785299 2.542586-.360697 6.417881-3.740658 11.250353-4.221123.302117-.030636.650826-.04735.971295-.043171z" fill="#fff" fill-rule="evenodd"/></svg>