<svg height="100" viewBox="0 0 100 100" width="100" xmlns="http://www.w3.org/2000/svg"><g fill="#fff"><path d="m72.260468 25.269791c1.678932 2.834198 2.667953 6.180603 2.667953 9.711357-.000008 10.495781-8.500053 18.995834-18.995842 18.995834-1.539955 0-3.048004-.187515-4.482162-.533592 3.311969 5.590977 9.362857 9.284481 16.327888 9.284481 10.495789 0 18.995834-8.50005 18.995834-18.995834 0-8.95583-6.173118-16.449513-14.513671-18.462246z"/><path d="m10.121138 31.183838-3.569669-3.315979-4.79458-.866142 3.315976-3.569672.866148-4.794579 3.569668 3.315987 4.794582.866135-3.315981 3.569671z"/><path d="m12.051075 74.581673-1.206454-6.379158-4.457394-4.720246 6.379159-1.206455 4.720249-4.457394 1.206454 6.379166 4.457395 4.720245-6.379164 1.206452z"/><path d="m51.040779 80-2.69424-2.502762-3.618756-.653732 2.502766-2.694229.653732-3.618752 2.694237 2.502762 3.618748.653725-2.502766 2.694244z"/><path d="m44.042545 36.512611-.394859-4.856163-2.952389-3.875778 4.856175-.394859 3.875778-2.952385.394848 4.856178 2.952389 3.875778-4.856175.394852z"/><path d="m27.4174 48.292263-1.315311-2.594688-2.507328-1.47506 2.594696-1.315319 1.475069-2.507328 1.315313 2.594696 2.507319 1.475067-2.594689 1.315312z"/><path d="m1.467517 48.10088-.12969-1.595002-.969705-1.272995 1.595-.129688 1.272996-.969703.12969 1.595001.969706 1.272995-1.595004.129684z"/><path d="m32.467518 12.100876-.129692-1.595001-.969704-1.272995 1.595001-.129685 1.272995-.969703.129692 1.595001.969704 1.272995-1.595005.129684z"/><path d="m62.467518 12.100876-.129692-1.595001-.969704-1.272995 1.595001-.129685 1.272992-.969703.129692 1.595001.969711 1.272995-1.595009.129684z"/><path d="m62.467518 92.100876-.129692-1.595001-.969704-1.272995 1.595001-.129685 1.272992-.969703.129692 1.595001.969711 1.272995-1.595009.129684z"/><path d="m31.467518 92.100876-.12969-1.595001-.969706-1.272995 1.594999-.129685 1.272997-.969703.129692 1.595001.969704 1.272995-1.595005.129684z"/><path d="m80.731277 78.693909-.129699-1.595002-.969704-1.273002 1.595001-.129685 1.273003-.969703.129684 1.595001.969704 1.272995-1.595001.129684z"/><path d="m97.472519 23.556084-1.889473-.839783-2.043953.312302.839775-1.889466-.312294-2.04396 1.889473.839775 2.043953-.312294-.839775 1.889465z"/></g></svg>