<svg height="100" viewBox="0 0 100 100" width="100" xmlns="http://www.w3.org/2000/svg" xmlns:xlink="http://www.w3.org/1999/xlink"><clipPath id="a"><path clip-rule="evenodd" d="m6.954656 73.078503h88.087471v-59.018608h-88.087471z"/></clipPath><g fill="#fff"><g clip-path="url(#a)"><path d="m50.867424 39.377243s-1.005936-4.697411 2.212315-7.200493c3.21825-2.503067 6.436645-2.503067 6.436645-5.363823 0-2.860763-1.273193-4.812927-1.273193-4.812927s4.559345 3.7211 4.491367 6.958549c-.102943 4.915833-3.696373 5.144707-3.812359 7.066926-.133632 2.212341 1.260597 5.139713 1.260597 5.139713z"/><path d="m60.972759 41.77541s1.477539-4.571076 5.516178-5.129685c4.038636-.558616 6.825859 1.050583 8.256241-1.426922 1.430374-2.477493 1.303841-4.804733 1.303841-4.804733s2.087974 5.502258.410377 8.272007c-2.547065 4.20578-5.773521 2.607273-6.835083 4.213986-1.221893 1.84914-1.478134 5.081443-1.478134 5.081443z"/><path d="m41.91713 77.086716s-1.477536 4.571068-5.516175 5.129684c-4.038635.558609-6.825863-1.05059-8.256241 1.426911-1.430378 2.4775-1.303838 4.804733-1.303838 4.804733s-2.087981-5.502258-.410386-8.271996c2.547074-4.205787 5.773524-2.607277 6.835085-4.213989 1.221898-1.849136 1.478138-5.081444 1.478138-5.081444z"/><path d="m68.523071 48.90506s3.56514-3.219883 7.342003-1.684319c3.776863 1.535565 5.386055 4.322792 7.863564 2.892414 2.477501-1.430378 3.53154-3.509082 3.53154-3.509082s-.942917 5.809074-3.780632 7.368934c-4.308731 2.368759-6.30365-.628822-8.026352.231842-1.982766.990441-3.820847 3.661572-3.820847 3.661572z"/><path d="m34.366814 69.957062s-3.565138 3.219879-7.341999 1.684318c-3.776862-1.535568-5.386059-4.322792-7.863558-2.892418-2.477501 1.430382-3.531543 3.509087-3.531543 3.509087s.942912-5.809074 3.780631-7.368935c4.308733-2.368763 6.303654.628823 8.026352-.231842 1.982765-.99044 3.820845-3.661571 3.820845-3.661571z"/><path d="m71.498764 58.853542s4.697411-1.005939 7.200493 2.212311c2.503067 3.21825 2.503067 6.436649 5.363823 6.436649s4.812927-1.273193 4.812927-1.273193-3.7211 4.559342-6.958557 4.491364c-4.915825-.102944-5.144699-3.696373-7.066917-3.812363-2.212342-.133629-5.139718 1.260605-5.139718 1.260605z"/><path d="m31.39113 60.008579s-4.69742 1.005936-7.200492-2.212314c-2.503073-3.218247-2.503073-6.436642-5.363829-6.436642s-4.812924 1.273193-4.812924 1.273193 3.721098-4.559345 6.958552-4.491375c4.915832.102951 5.144701 3.696377 7.066925 3.812367 2.212339.133629 5.139711-1.260597 5.139711-1.260597z"/><path d="m69.100594 68.958878s4.571075 1.477531 5.129684 5.516174c.558609 4.038635-1.050583 6.825859 1.426918 8.256241 2.477501 1.430374 4.804733 1.30384 4.804733 1.30384s-5.50225 2.087975-8.272003.410378c-4.20578-2.547066-2.607269-5.773522-4.213981-6.835083-1.849144-1.221893-5.081444-1.478134-5.081444-1.478134z"/><path d="m33.789295 49.903248s-4.571075-1.477539-5.129686-5.516178c-.558611-4.038636 1.050587-6.825863-1.426914-8.256241-2.477501-1.430374-4.804734-1.303841-4.804734-1.303841s5.502255-2.087982 8.271998-.410377c4.205784 2.547065 2.607281 5.773521 4.213989 6.835079 1.849136 1.221897 5.081444 1.478138 5.081444 1.478138z"/><path d="m40.918232 42.352932s-3.219883-3.56514-1.684319-7.341999c1.535569-3.776863 4.322792-5.386063 2.892415-7.863564-1.430382-2.477501-3.509087-3.53154-3.509087-3.53154s5.809078.94291 7.368938 3.780632c2.36876 4.308732-.628822 6.30365.231839 8.026352.990444 1.982766 3.661575 3.820843 3.661575 3.820843z"/></g><path d="m3 70.5c0 1.932999 1.567003 3.5 3.5 3.5h87c1.932999 0 3.5-1.567001 3.5-3.5s-1.567001-3.5-3.5-3.5h-87c-1.932997 0-3.5 1.567001-3.5 3.5z" fill-rule="evenodd"/></g></svg>