<svg height="558" viewBox="0 0 362 558" width="362" xmlns="http://www.w3.org/2000/svg"><g stroke="#fff" stroke-linecap="round" stroke-linejoin="round"><path d="m207.272186 343.493744c19.08667 14.508667 31.40979 37.4552 31.40979 63.279907 0 43.872193-35.565429 79.437622-79.437622 79.437622-43.872192 0-79.437607-35.565429-79.437607-79.437622 0-25.787964 12.288056-48.705871 31.328309-63.217895" fill="none" stroke-width="24"/><path d="m111.240463 344.448029v-225.210663c0-26.594178 21.409745-48.003907 48.003891-48.003907 26.594177 0 48.003906 21.409729 48.003906 48.003907v225.179413" fill="none" stroke-width="23.992182"/><g fill="#fff"><path d="m194.704193 408.370544c0 19.316346-15.658996 34.975403-34.975372 34.975403s-34.975373-15.659057-34.975373-34.975403c0-19.316345 15.658997-34.975341 34.975373-34.975341s34.975372 15.658996 34.975372 34.975341z" stroke-width="24"/><path d="m159.244354 187.620422c5.372101 0 9.727051 4.35492 9.727051 9.727051v194.270905c0 5.372131-4.35495 9.72705-9.727051 9.72705-5.372101 0-9.727051-4.354919-9.727051-9.72705v-194.270905c0-5.372131 4.35495-9.727051 9.727051-9.727051z" stroke-width="24"/><path d="m247.319 120.25592c0-5.372131 4.35495-9.72705 9.727051-9.72705h43.129822c5.37207 0 9.727051 4.354919 9.727051 9.72705 0 5.372071-4.354981 9.727051-9.727051 9.727051h-43.129822c-5.372101 0-9.727051-4.35498-9.727051-9.727051z" stroke-width="12.987179"/><path d="m247.319 184.423401c0-5.372131 4.35495-9.727051 9.727051-9.727051h43.129822c5.37207 0 9.727051 4.35492 9.727051 9.727051 0 5.37207-4.354981 9.727051-9.727051 9.727051h-43.129822c-5.372101 0-9.727051-4.354981-9.727051-9.727051z" stroke-width="12.987179"/><path d="m247.319 248.590881c0-5.372131 4.35495-9.72705 9.727051-9.72705h43.129822c5.37207 0 9.727051 4.354919 9.727051 9.72705 0 5.372071-4.354981 9.727051-9.727051 9.727051h-43.129822c-5.372101 0-9.727051-4.35498-9.727051-9.727051z" stroke-width="12.987179"/><path d="m247.319 312.758331c0-5.372131 4.35495-9.72705 9.727051-9.72705h43.129822c5.37207 0 9.727051 4.354919 9.727051 9.72705 0 5.372071-4.354981 9.727051-9.727051 9.727051h-43.129822c-5.372101 0-9.727051-4.35498-9.727051-9.727051z" stroke-width="12.987179"/></g></g></svg>